<?xml version="1.0" encoding="UTF-8"?>
<svg width="1024px" height="1024px" viewBox="0 0 1024 1024" version="1.1" xmlns="http://www.w3.org/2000/svg" xmlns:xlink="http://www.w3.org/1999/xlink">
    <!-- Generator: Sketch 39.1 (31720) - http://www.bohemiancoding.com/sketch -->
    <title>Untitled</title>
    <desc>Created with Sketch.</desc>
    <defs></defs>
    <g id="Page-1" stroke="none" stroke-width="1" fill="none" fill-rule="evenodd">
        <g id="tw">
            <g id="TW_Logo-Lockup">
                <g id="Symbols">
                    <g id="TW_Web_Menu_Logo">
                        <g id="TW_Logo-Lockup">
                            <g id="TW_Logo">
                                <path d="M896.000256,0 L128.000256,0 C57.307136,0 0.000256,57.30688 0.000256,128 L0.000256,896 C0.000256,966.69312 57.307136,1024 128.000256,1024 L896.000256,1024 C966.693376,1024 1024.00026,966.69312 1024.00026,896 L1024.00026,128 C1024.00026,57.30688 966.693376,0 896.000256,0" id="Fill-1" fill="#316FEB"></path>
                                <path d="M312.980864,281.035008 C308.441984,279.871488 0.000384,201.753088 0.000384,201.753088 L0.000384,289.593088 L315.840384,289.593088 C318.500224,289.593088 320.000384,289.419008 320.000384,286.160128 C320.000384,283.760128 317.861504,282.285568 312.980864,281.035008" id="Fill-3" fill="#FFFFFF"></path>
                                <path d="M224.000256,496 C224.000256,477.01376 226.560256,467.36 242.322176,461.78688 L575.083776,363.1104 C575.626496,362.94912 576.000256,362.44992 576.000256,361.88288 L576.000256,334.34624 C576.000256,326.18624 572.426496,321.55264 566.666496,321.55264 C563.414016,321.55264 556.420096,322.7776 555.187456,322.95296 C555.187456,322.95296 163.931136,378.30912 149.966336,380.4352 C136.000256,382.56 127.960576,393.03168 127.960576,405.78176 L127.960576,562.81088 C127.960576,576.64 138.841856,585.53984 152.347136,582.91584 C165.852416,580.29184 222.963456,569.19552 222.963456,569.19552 C223.566336,569.07904 224.000256,568.55168 224.000256,567.93856 L224.000256,496 L224.000256,496 Z" id="Fill-5" fill="#FFFFFF"></path>
                                <path d="M372.362752,563.967488 C357.604352,572.488448 351.882752,584.805888 351.882752,599.440128 L351.882752,774.394368 C351.882752,787.627008 365.153792,793.814528 375.384832,787.419648 L539.406592,684.896768 L539.601152,685.029888 L539.699712,685.097728 L614.586112,736.791808 C615.796992,737.626368 616.904192,737.791488 617.546752,737.791488 C619.896832,737.791488 621.705472,736.475648 622.417152,733.986048 L657.582592,611.030528 L657.883392,610.842368 L748.801792,554.012928 C760.777472,546.527488 768.051712,533.402368 768.051712,519.280128 L768.051712,364.319488 C768.051712,352.799488 761.640192,346.739968 753.298432,346.739968 C748.532992,346.739968 746.060032,348.240128 743.896832,349.498368 C742.469632,350.329088 387.122432,555.446528 372.362752,563.967488" id="Fill-7" fill="#FFFFFF"></path>
                            </g>
                        </g>
                    </g>
                </g>
            </g>
        </g>
    </g>
</svg>