<?xml version="1.0" encoding="UTF-8" standalone="no"?>
<svg width="103px" height="32px" viewBox="0 0 103 32" version="1.1" xmlns="http://www.w3.org/2000/svg" xmlns:xlink="http://www.w3.org/1999/xlink">
    <!-- Generator: Sketch 44.1 (41455) - http://www.bohemiancoding.com/sketch -->
    <title>TW_Logo-Lockup</title>
    <desc>Created with Sketch.</desc>
    <defs>
        <polygon id="path-1" points="9.64 0.0213070787 9.64 18.86126 0.020244 18.86126 0.020244 0.0213070787 9.64 0.0213070787"></polygon>
    </defs>
    <g id="Symbols" stroke="none" stroke-width="1" fill="none" fill-rule="evenodd">
        <g id="TW_Web_Menu_Logo">
            <g id="TW_Logo-Lockup">
                <g id="TW_Wordmark" transform="translate(42.000000, 5.000000)">
                    <path d="M11.123272,7.517228 L13.464352,7.517228 C13.773112,7.517228 13.970592,7.663228 14.056272,7.954668 L16.711352,17.089668 L16.762832,17.089668 L19.541592,7.954668 C19.627272,7.663228 19.824552,7.517228 20.133632,7.517228 L22.835312,7.517228 C23.029992,7.517228 23.316952,7.596788 23.426832,7.954668 L26.231672,17.089668 L26.282992,17.089668 L28.993632,7.954668 C29.079312,7.663228 29.276432,7.517228 29.585512,7.517228 L31.798072,7.517228 C32.043312,7.517228 32.556672,7.753348 32.356272,8.337508 L28.161432,20.486548 C28.075752,20.795268 27.869832,20.949708 27.543792,20.949708 L25.047872,20.949708 C24.759992,20.949708 24.486392,20.737548 24.404872,20.486548 L21.471352,11.454468 L21.420192,11.454468 L18.499752,20.530228 C18.423952,20.763388 18.174992,20.949708 17.894792,20.949708 L15.399032,20.949708 C15.072872,20.949708 14.867272,20.795268 14.781592,20.486548 L10.531392,8.340788 C10.384992,7.919988 10.706552,7.517228 11.123272,7.517228" id="Fill-9" fill="#316FEB"></path>
                    <path d="M37.283136,8.263576 C37.283136,7.840016 36.910016,7.517216 36.536616,7.517216 L34.631696,7.517216 C34.213336,7.517216 33.885696,7.870016 33.885696,8.263576 L33.885696,20.203136 C33.885696,20.572496 34.180016,20.949656 34.631696,20.949656 L36.536616,20.949656 C36.960016,20.949656 37.283136,20.580016 37.283136,20.203136 L37.283136,8.263576 Z" id="Fill-11" fill="#316FEB"></path>
                    <path d="M47.343232,11.135996 C47.154392,11.135996 46.859992,11.166676 46.699512,10.771876 C46.519992,10.346676 46.079992,9.730956 44.769192,9.730956 C43.589992,9.730956 42.736112,10.290036 42.736112,11.199956 C42.736112,12.429996 44.534872,12.473156 46.380272,12.968796 C48.323992,13.490836 50.319432,14.355156 50.319432,16.972676 C50.319432,19.133836 48.659992,21.328756 44.626672,21.328756 C39.693312,21.328756 39.068032,18.106676 39.068032,17.664996 C39.068032,17.059996 39.479992,16.934996 39.825512,16.934996 L41.704152,16.934996 C41.949992,16.934996 42.299992,17.069996 42.399552,17.399236 C42.504952,17.747916 42.973312,18.585476 44.715952,18.585476 C45.684992,18.585476 46.929232,18.299996 46.929232,17.299076 C46.929232,15.955876 45.295992,15.704556 43.543592,15.318916 C41.513672,14.872156 39.323712,14.386676 39.323712,11.373556 C39.323712,8.959996 41.219992,7.009876 44.614912,7.009876 C48.879992,7.009876 49.729872,9.975196 49.762432,10.181796 C49.829992,10.609996 49.634992,11.135996 49.041872,11.135996 L47.343232,11.135996 Z" id="Fill-13" fill="#316FEB"></path>
                    <g id="Group-17" transform="translate(50.480000, 2.360000)">
                        <mask id="mask-2" fill="white">
                            <use xlink:href="#path-1"></use>
                        </mask>
                        <g id="Clip-16"></g>
                        <path d="M0.020244,7.28746 L0.020244,5.89122 C0.020244,5.55782 0.283324,5.15722 0.749644,5.15722 L2.549644,5.15722 L2.549644,1.59374 C2.549644,1.22682 2.798444,1.00342 2.986924,0.92126 L4.909644,0.0827 C5.471364,-0.14806 5.926284,0.31438 5.926284,0.76046 L5.926284,5.15722 L8.905644,5.15722 C9.365644,5.15722 9.640004,5.55906 9.640004,5.89122 L9.640004,7.28958 C9.640004,7.69438 9.277684,8.02534 8.905844,8.02534 L5.926284,8.02534 L5.926284,14.35978 C5.926284,15.77334 6.748764,15.88246 7.444364,15.88246 C7.643764,15.88246 7.821844,15.84898 7.972244,15.79802 C8.413364,15.6471 8.743084,15.9047 8.855044,16.12138 C9.074924,16.5463 9.326524,17.01338 9.502484,17.34802 C9.696244,17.71582 9.540364,18.18694 9.186324,18.35866 C8.614724,18.63634 7.858924,18.86126 6.773364,18.86126 C5.493324,18.86126 4.403964,18.65526 3.467884,17.71914 C2.734364,16.98566 2.549644,15.65998 2.549644,13.88922 L2.549644,8.02534 L0.754404,8.02534 C0.283324,8.02534 0.020244,7.6177 0.020244,7.28746" id="Fill-15" fill="#316FEB" mask="url(#mask-2)"></path>
                    </g>
                    <path d="M0.108212,9.628652 L0.108212,8.251212 C0.108212,7.917812 0.371292,7.517212 0.837612,7.517212 L2.637612,7.517212 L2.637612,3.953732 C2.637612,3.586852 2.886412,3.363452 3.074892,3.281252 C3.186492,3.232612 4.793012,2.531932 4.793012,2.531932 C4.997612,2.442732 5.122492,2.381452 5.304532,2.381452 C5.700012,2.381452 6.014212,2.752212 6.014212,3.120452 L6.014212,7.517212 L8.993612,7.517212 C9.453612,7.517212 9.727972,7.919052 9.727972,8.251212 L9.727972,9.630772 C9.727972,10.035572 9.365652,10.366532 8.993772,10.366532 L6.014212,10.366532 L6.014212,16.159492 C6.014212,16.834612 5.995532,17.362492 6.253132,17.752132 C6.489772,18.109732 6.836732,18.242492 7.532332,18.242492 C7.731692,18.242492 7.909812,18.208972 8.060172,18.158012 C8.501332,18.007092 8.831052,18.264692 8.943012,18.481372 C9.162852,18.906292 9.414452,19.373372 9.590452,19.708012 C9.784212,20.075812 9.628332,20.546932 9.274292,20.718652 C8.702692,20.996332 7.906652,21.221332 6.926652,21.221332 C5.820012,21.221332 4.575692,21.094332 3.615692,20.134372 C2.865692,19.384332 2.637612,18.360012 2.637612,16.249252 L2.637612,10.366532 L0.842372,10.366532 C0.371292,10.366532 0.108212,9.958892 0.108212,9.628652" id="Fill-18" fill="#316FEB"></path>
                    <path d="M35.593232,4.80166 C34.579992,4.80166 33.418672,4.19998 33.418672,2.7721 C33.418672,1.34418 34.575872,0.74254 35.593232,0.74254 C36.463232,0.74254 37.767832,1.34418 37.767832,2.7721 C37.767832,4.19998 36.606472,4.80166 35.593232,4.80166" id="Fill-20" fill="#316FEB"></path>
                </g>
                <g id="TW_Logo">
                    <path d="M28.000008,0 L4.000008,0 C1.790848,0 8e-06,1.79084 8e-06,4 L8e-06,28 C8e-06,30.20916 1.790848,32 4.000008,32 L28.000008,32 C30.209168,32 32.000008,30.20916 32.000008,28 L32.000008,4 C32.000008,1.79084 30.209168,0 28.000008,0" id="Fill-1" fill="#316FEB"></path>
                    <path d="M9.780652,8.782344 C9.638812,8.745984 1.2e-05,6.304784 1.2e-05,6.304784 L1.2e-05,9.049784 L9.870012,9.049784 C9.953132,9.049784 10.000012,9.044344 10.000012,8.942504 C10.000012,8.867504 9.933172,8.821424 9.780652,8.782344" id="Fill-3" fill="#FFFFFF"></path>
                    <path d="M7.000008,15.5 C7.000008,14.90668 7.080008,14.605 7.572568,14.43084 L17.971368,11.3472 C17.988328,11.34216 18.000008,11.32656 18.000008,11.30884 L18.000008,10.44832 C18.000008,10.19332 17.888328,10.04852 17.708328,10.04852 C17.606688,10.04852 17.388128,10.0868 17.349608,10.09228 C17.349608,10.09228 5.122848,11.82216 4.686448,11.8886 C4.250008,11.955 3.998768,12.28224 3.998768,12.68068 L3.998768,17.58784 C3.998768,18.02 4.338808,18.29812 4.760848,18.21612 C5.182888,18.13412 6.967608,17.78736 6.967608,17.78736 C6.986448,17.78372 7.000008,17.76724 7.000008,17.74808 L7.000008,15.5 Z" id="Fill-5" fill="#FFFFFF"></path>
                    <path d="M11.636336,17.623984 C11.175136,17.890264 10.996336,18.275184 10.996336,18.732504 L10.996336,24.199824 C10.996336,24.613344 11.411056,24.806704 11.730776,24.606864 L16.856456,21.403024 L16.862536,21.407184 L16.865616,21.409304 L19.205816,23.024744 C19.243656,23.050824 19.278256,23.055984 19.298336,23.055984 C19.371776,23.055984 19.428296,23.014864 19.450536,22.937064 L20.549456,19.094704 L20.558856,19.088824 L23.400056,17.312904 C23.774296,17.078984 24.001616,16.668824 24.001616,16.227504 L24.001616,11.384984 C24.001616,11.024984 23.801256,10.835624 23.540576,10.835624 C23.391656,10.835624 23.314376,10.882504 23.246776,10.921824 C23.202176,10.947784 12.097576,17.357704 11.636336,17.623984" id="Fill-7" fill="#FFFFFF"></path>
                </g>
            </g>
        </g>
    </g>
</svg>